<svg xmlns="http://www.w3.org/2000/svg" xmlns:xlink="http://www.w3.org/1999/xlink" version="1.1" id="Layer_1" x="0px" y="0px" width="100px" height="100px" viewBox="0 0 100 100" enable-background="new 0 0 100 100" xml:space="preserve">
<g>
	<path d="M50-0.002C22.43-0.002,0,22.428,0,50c0,27.571,22.429,50.002,50,50.002c27.57,0,50-22.432,50-50.002   C100,22.428,77.57-0.002,50-0.002z M50,94.232c-24.39,0-44.23-19.842-44.23-44.233C5.771,25.608,25.61,5.768,50,5.768   S94.23,25.61,94.23,50C94.23,74.391,74.391,94.232,50,94.232z"/>
	<path d="M59.371,46.406l-26.291-0.002l11.197-11.197c1.131-1.129,1.131-2.963,0-4.094c-1.131-1.131-2.963-1.131-4.094,0   l-16.14,16.14c-0.135,0.135-0.255,0.284-0.361,0.442c-0.043,0.064-0.073,0.135-0.111,0.201c-0.054,0.098-0.112,0.193-0.155,0.297   c-0.036,0.085-0.054,0.173-0.081,0.259c-0.029,0.095-0.064,0.185-0.084,0.283c-0.03,0.147-0.04,0.297-0.045,0.447   c-0.001,0.039-0.012,0.077-0.011,0.117c0,0.045,0.011,0.087,0.012,0.132c0.007,0.145,0.016,0.289,0.045,0.432   c0.021,0.104,0.058,0.199,0.088,0.299c0.024,0.082,0.043,0.164,0.076,0.242c0.046,0.112,0.108,0.217,0.168,0.321   c0.033,0.059,0.059,0.121,0.096,0.178c0.108,0.162,0.229,0.312,0.367,0.447l16.135,16.137c0.565,0.564,1.306,0.848,2.048,0.848   c0.742,0,1.482-0.283,2.049-0.848c1.13-1.131,1.13-2.965-0.001-4.096L33.083,52.195h26.288c6.422,0,11.645,5.223,11.645,11.643   c0,1.6,1.297,2.896,2.895,2.896c1.6,0,2.896-1.297,2.896-2.895C76.807,54.227,68.986,46.403,59.371,46.406z"/>
</g>
</svg>