<svg xmlns="http://www.w3.org/2000/svg" xmlns:xlink="http://www.w3.org/1999/xlink" version="1.1" id="Layer_1" x="0px" y="0px" width="100px" height="100px" viewBox="0 0 100 100" enable-background="new 0 0 100 100" xml:space="preserve">
<g>
	<path fill="#000000" d="M29.367,34.304c3.094,0,5.919-1.122,8.106-2.973c-3.069-3.341-4.972-7.769-4.972-12.665   c0-2.99,0.716-5.806,1.958-8.317c-1.558-0.69-3.277-1.083-5.092-1.083c-6.931,0-12.547,5.604-12.547,12.52   C16.82,28.7,22.437,34.304,29.367,34.304z"/>
	<path fill="#000000" d="M70.101,18.667c0,4.896-1.903,9.324-4.974,12.665c2.188,1.851,5.014,2.973,8.107,2.973   c6.929,0,12.545-5.604,12.545-12.518c0-6.915-5.616-12.52-12.545-12.52c-1.814,0-3.534,0.393-5.092,1.084   C69.385,12.86,70.101,15.676,70.101,18.667z"/>
	<path fill="#000000" d="M29.367,65.667L26.24,37.513C19.086,37.886,10.567,40.6,10.567,40.6l3.133,21.933l6.267,6.267v18.8   c0,0,4.117,3.134,7.833,3.134c3.67,0,7.833-3.134,7.833-3.134V69.844L29.367,65.667z"/>
	<path fill="#000000" d="M76.324,37.851l-3.09,27.816l-9.4,6.267V87.6c0,0,4.117,3.134,7.833,3.134c3.671,0,7.834-3.134,7.834-3.134   V68.8l6.937-5.661L88.9,41.063C88.9,41.063,82.609,38.775,76.324,37.851z"/>
</g>
<path fill-rule="evenodd" clip-rule="evenodd" fill="#000000" d="M29.367,40.6c0,0,12.504-3.133,21.934-3.133  c9.371,0,21.934,3.133,21.934,3.133l-3.134,25.067l-9.399,6.267v21.933c0,0-4.729,3.134-9.4,3.134c-4.729,0-9.4-3.134-9.4-3.134  V71.934l-9.4-6.267L29.367,40.6z"/>
<path fill-rule="evenodd" clip-rule="evenodd" fill="#000000" d="M51.301,3c8.651,0,15.667,7.013,15.667,15.667  c0,8.652-7.016,15.667-15.667,15.667c-8.653,0-15.667-7.015-15.667-15.667C35.634,10.013,42.647,3,51.301,3z"/>
</svg>